<?xml version="1.0" encoding="utf-8"?>
<!-- Generator: Adobe Illustrator 26.0.0, SVG Export Plug-In . SVG Version: 6.00 Build 0)  -->
<svg version="1.1" id="Layer_1" xmlns="http://www.w3.org/2000/svg" xmlns:xlink="http://www.w3.org/1999/xlink" x="0px" y="0px"
	 viewBox="0 0 4000 4000" style="enable-background:new 0 0 4000 4000;" xml:space="preserve">
<style type="text/css">
	.st0{display:none;}
	.st1{fill:#E6EBED;}
	.st2{opacity:0.25;}
	.st3{fill:#390075;}
	.st4{fill:#FFFFFF;}
	.st5{opacity:0.3;}
	.st6{opacity:0.2;}
	.st7{fill:#FFBE06;}
	.st8{fill:#F72872;}
	.st9{fill:#D7DCF0;}
	.st10{fill:#FFDC9C;}
	.st11{opacity:0.55;}
</style>
<g>
	<g class="st0">
		<rect class="st1" width="4000" height="4000"/>
	</g>
	<g>
		<g class="st2">
			<path class="st3" d="M3212.66,1391.89c-14.33-29.7-39.37-52.04-70.51-62.91l-236.07-82.38l-8.44-92.07
				c-3.01-32.84-18.63-62.54-43.99-83.63c-25.35-21.09-57.38-31.02-90.24-28.03l-349.35,32.05l-331.22-115.58
				c-31.13-10.86-64.64-8.96-94.34,5.38c-29.7,14.33-52.04,39.37-62.91,70.51l-30.46,87.29l-248.99,22.84
				c-67.79,6.22-117.88,66.43-111.67,134.23l63.66,694.04l-229.62,658.04c-10.86,31.14-8.95,64.64,5.38,94.34
				c14.34,29.7,39.38,52.04,70.51,62.9l236.07,82.38l8.45,92.07c5.87,63.97,59.82,112.19,122.85,112.19c3.76,0,7.55-0.17,11.37-0.52
				l349.35-32.05l331.22,115.58c13.42,4.68,27.1,6.9,40.57,6.9c51.06,0,98.93-31.94,116.68-82.79l30.46-87.29l248.99-22.84
				c32.84-3.01,62.54-18.63,83.63-43.99c21.09-25.35,31.05-57.4,28.03-90.24l-63.66-694.04l229.62-658.04
				C3228.91,1455.09,3227,1421.59,3212.66,1391.89z"/>
		</g>
		<g>
			<path class="st4" d="M2878.89,2894.94l-176.1,16.13l-716.11,65.7l-225.06,20.64c-58.1,5.33-109.57-37.48-114.9-95.58l-4.15-45.13
				l-69.27-755.52l-80.98-883.13c-5.33-58.1,37.48-109.57,95.58-114.9l344.69-31.61l291.14-26.7l481.44-44.15
				c58.1-5.33,109.51,37.46,114.9,95.58l14.83,161.84l92.55,1009.18l47.03,512.76C2979.8,2838.14,2936.99,2889.61,2878.89,2894.94z"
				/>
			<path class="st3" d="M1751.77,3000.58c-25.24,0-49.47-8.73-69.13-25.08c-22.27-18.53-35.98-44.6-38.63-73.42L1489.6,1218.3
				c-2.64-28.82,6.1-56.96,24.62-79.22c18.52-22.27,44.6-35.99,73.42-38.63l1117.27-102.47c59.5-5.47,112.34,38.53,117.86,98.04
				l154.41,1683.78c2.65,28.82-6.1,56.96-24.62,79.22c-18.52,22.27-44.6,35.99-73.42,38.63l-1117.27,102.47
				C1758.49,3000.43,1755.12,3000.58,1751.77,3000.58z M2714.88,1002.95c-3.13,0-6.29,0.14-9.47,0.43l-1117.27,102.47
				c-27.38,2.51-52.14,15.55-69.73,36.69c-17.59,21.15-25.9,47.87-23.38,75.24l154.4,1683.78c2.51,27.38,15.55,52.14,36.69,69.73
				c21.15,17.59,47.85,25.88,75.25,23.38l1117.27-102.47c27.38-2.51,52.14-15.55,69.73-36.69c17.59-21.15,25.9-47.87,23.38-75.24
				l-154.4-1683.78C2812.4,1043.16,2767.4,1002.95,2714.88,1002.95z"/>
		</g>
		<g>
			<path class="st3" d="M1751.76,3015.64c-28.76,0-56.36-9.94-78.74-28.56c-25.35-21.09-40.97-50.8-43.99-83.63l-154.45-1683.76
				c-6.22-67.79,43.88-128,111.67-134.22l1117.26-102.49c32.83-3,64.89,6.94,90.24,28.03c25.35,21.09,40.97,50.8,43.99,83.63
				l154.45,1683.76c6.22,67.79-43.88,128-111.67,134.22l0,0l-1117.26,102.49C1759.42,3015.47,1755.58,3015.64,1751.76,3015.64z
				 M2714.95,1018.01c-2.71,0-5.45,0.12-8.19,0.38L1589.5,1120.87c-48.27,4.43-83.93,47.29-79.51,95.57l154.45,1683.76
				c2.14,23.38,13.27,44.53,31.32,59.55c18.05,15.02,40.85,22.11,64.25,19.96l1117.26-102.49l1.62,17.71l-1.62-17.71
				c48.27-4.43,83.93-47.29,79.51-95.57l-154.45-1683.76c-2.14-23.38-13.27-44.53-31.32-59.55
				C2755.08,1025.09,2735.42,1018.01,2714.95,1018.01z"/>
		</g>
		<g class="st5">
			<path class="st3" d="M2927.44,2267.28l-224.65,643.79l-716.11,65.7l-344.11-120.08l-69.27-755.52l364.39-1044.25
				c19.23-55.11,79.46-84.18,134.58-64.95l762.64,266.12L2927.44,2267.28z"/>
		</g>
		<g>
			<path class="st4" d="M3141.34,1420.45L2584.27,3016.9c-19.23,55.11-79.46,84.18-134.58,64.95l-1059.3-369.64
				c-55.11-19.23-84.18-79.46-64.95-134.58l557.07-1596.45c19.23-55.11,79.46-84.18,134.58-64.95l1059.3,369.64
				C3131.5,1305.11,3160.57,1365.34,3141.34,1420.45z"/>
			<path class="st3" d="M2484.6,3090.53c-12.03,0-24.11-2.03-35.81-6.11l-1059.3-369.64c-56.43-19.69-86.32-81.62-66.63-138.04
				l557.07-1596.45c19.69-56.43,81.62-86.32,138.04-66.62l1059.3,369.64c27.34,9.54,49.33,29.15,61.91,55.21
				c12.58,26.07,14.26,55.48,4.72,82.83L2586.84,3017.8c-9.54,27.34-29.15,49.33-55.22,61.91
				C2516.7,3086.9,2500.69,3090.53,2484.6,3090.53z M1982.37,913.06c-42.57,0-82.49,26.62-97.29,69.03l-557.07,1596.45
				c-18.7,53.59,9.68,112.4,63.28,131.11l1059.3,369.64c25.97,9.06,53.9,7.48,78.66-4.48c24.76-11.95,43.38-32.83,52.44-58.8
				l557.08-1596.45l2.57,0.9l-2.57-0.9c9.06-25.97,7.47-53.9-4.48-78.66c-11.95-24.76-32.83-43.38-58.8-52.45l-1059.3-369.64
				C2005.01,914.91,1993.59,913.06,1982.37,913.06z"/>
		</g>
		<g class="st6">
			<path class="st3" d="M2379.8,1641.21c-9.56-18.31-28.92-28.1-49.34-24.91l-499.2,78.01c-1.81,0.28-3.57,0.86-5.2,1.71
				L576.96,2348.28c-30.58,15.97-53.12,42.88-63.44,75.79c-10.33,32.9-7.22,67.86,8.75,98.44l72.76,139.34
				c15.97,30.58,42.88,53.12,75.78,63.44c12.75,4,25.81,5.99,38.8,5.99c20.54,0,40.91-4.96,59.64-14.74l1249.11-652.26
				c1.63-0.85,3.11-1.96,4.37-3.29l349.31-365.06C2386.32,1681.01,2389.36,1659.53,2379.8,1641.21z"/>
		</g>
		<g class="st5">
			<path class="st3" d="M3128.5,1415.51l-557.07,1596.45c-19.23,55.11-79.46,84.18-134.58,64.95l-1059.3-369.64
				c-40.23-14.04-66.57-49.9-70.38-89.71c12.11,15.65,28.68,28.08,48.71,35.07l1059.3,369.64c55.11,19.23,115.34-9.84,134.58-64.95
				l557.07-1596.45c5.19-14.88,6.89-30.17,5.43-44.87C3133.43,1343.3,3140.74,1380.43,3128.5,1415.51z"/>
		</g>
		<g>
			<path class="st3" d="M2484.61,3105.61c-13.7,0-27.46-2.31-40.78-6.96l-1059.31-369.64c-64.28-22.44-98.32-92.98-75.89-157.25
				L1865.7,975.33c10.86-31.13,33.2-56.18,62.9-70.51c29.7-14.34,63.21-16.25,94.34-5.38l1059.31,369.64
				c64.28,22.44,98.32,92.98,75.89,157.25l-557.07,1596.43c-10.86,31.13-33.21,56.18-62.9,70.51
				C2521.18,3101.47,2502.94,3105.61,2484.61,3105.61z M1982.19,928.06c-13.05,0-26.04,2.94-38.14,8.78
				c-21.15,10.21-37.05,28.03-44.79,50.21L1342.2,2583.48c-15.97,45.76,8.27,95.99,54.04,111.96l1059.31,369.64h0
				c22.16,7.74,46.02,6.38,67.17-3.83c21.15-10.21,37.05-28.03,44.79-50.21l557.07-1596.43c15.97-45.76-8.27-95.99-54.04-111.96
				L2011.23,933.02C2001.74,929.71,1991.95,928.06,1982.19,928.06z"/>
		</g>
		<g>
			<path class="st3" d="M2468.46,1514.61c14.49-7.8,30.05-14.11,46.52-17.95c16.45-3.89,33.82-4.77,50.86-2.85
				c34.16,3.79,66.83,20.45,89.52,46.28c11.41,12.87,20.25,27.93,26.07,43.77c5.86,15.86,8.78,32.42,9.33,48.72
				c1.01,32.67-6.9,64.18-20.74,92.43c-14.15,28.52-33.91,52.21-55.73,72.84c-21.87,20.56-45.77,37.79-69.93,53.56
				c-48.34,31.4-97.96,57.37-138.91,92.88c-5.08,4.44-10.03,9-14.84,13.68c-4.66,4.64-9.11,9.42-13.26,14.42
				c-8.23,10.01-15.25,20.81-20.01,32.13c-2.3,5.66-4.06,11.42-5.13,17.19c-0.92,5.77-1.12,11.53-0.57,17.2
				c1.48,11.28,6.01,21.88,13.75,30.7c15.73,17.6,41.69,27.19,67.17,28.41c3.21,0.29,6.41,0.01,9.63,0.07
				c3.21-0.07,6.38-0.52,9.58-0.74c3.16-0.46,6.27-1.04,9.45-1.58l10.13-2.35c6.92-1.62,14.07-3.36,21.77-4.4
				c7.67-0.99,15.92-1.55,24.56,0.21c8.62,1.77,17.24,5.85,23.62,12.53c6.48,6.6,10.46,15.14,12.1,23.46
				c3.05,16.81-0.48,32.8-7.27,47c-7.17,14.02-16.5,25.08-24.85,36.22c-8.35,11.04-15.89,22.12-19.5,34.3
				c-7.52,24.39-0.91,53.51,17.3,72.07c18.14,18.66,47.31,26.87,72.94,19.82l0.03-0.01c2.42-0.66,4.91,0.76,5.58,3.17
				c0.65,2.37-0.71,4.82-3.04,5.54c-28.78,8.85-61.76,1.04-83.88-20.06c-22.14-21.29-31.1-54.57-23.11-84.56
				c4.01-15.2,12.42-28.11,20.63-39.79c8.23-11.66,16.72-22.8,22.02-34.22c5.06-11.29,7.09-24.47,4.59-35.48
				c-1.3-5.47-3.86-10.07-7.39-13.47c-3.53-3.47-8.33-5.56-13.52-6.46c-10.72-1.74-23.76,1.59-37.18,5.29l-10.43,2.78
				c-3.74,0.79-7.56,1.63-11.36,2.3c-3.83,0.43-7.66,1.06-11.5,1.28c-3.84,0.1-7.7,0.5-11.54,0.31c-15.39-0.23-30.77-2.89-45.48-8.3
				c-14.63-5.45-28.83-13.65-40.26-25.71c-11.44-12.01-19.23-28.08-21.81-44.75c-1.15-8.35-1.12-16.81-0.06-25.03
				c1.2-8.18,3.34-16.05,6.11-23.57c11.43-29.89,32.46-53.49,53.81-73.27c43.48-40.16,94-68.55,139.17-100.26
				c22.61-15.85,44.13-32.61,62.82-51.43c9.34-9.4,17.95-19.3,25.55-29.74c7.62-10.49,14.22-21.38,19.29-32.69
				c10.25-22.74,15.4-47.91,13.79-71.73c-1.52-23.82-10.32-45.94-25.61-61.89c-15.22-16.13-36.56-26.07-58.6-27.74
				c-11.03-0.82-22.28,0.02-33.24,3.05c-10.96,2.99-21.6,7.71-31.82,13.6l-0.62,0.36c-13.03,7.51-29.68,3.04-37.19-9.99
				c-7.51-13.03-3.04-29.68,9.99-37.19C2467.96,1514.89,2468.27,1514.72,2468.46,1514.61z"/>
		</g>
		<g>
			<g>
				<path class="st7" d="M1977.9,1989.46L728.79,2641.72c-54.99,28.72-122.79,7.43-151.5-47.56l-72.76-139.34
					c-28.71-54.99-7.43-122.79,47.56-151.5l1249.11-652.26l12.7-2.01l377.29-58.94l109.21-17.06c28.87-4.5,47.01,30.24,26.82,51.36
					l-76.41,79.87l-263.99,275.92L1977.9,1989.46z"/>
			</g>
			<g>
				<path class="st8" d="M850.72,2578.05l-121.93,63.67c-54.99,28.72-122.79,7.43-151.5-47.56l-72.76-139.34
					c-28.71-54.99-7.43-122.79,47.56-151.5l121.93-63.67L850.72,2578.05z"/>
			</g>
			<g>
				
					<rect x="755.51" y="2190.03" transform="matrix(0.8864 -0.4629 0.4629 0.8864 -1009.3958 648.0496)" class="st9" width="120.7" height="381.76"/>
				<path class="st3" d="M849.56,2581.72l-1.26-2.41l-177.97-340.82l111.82-58.39l1.26,2.41l177.97,340.82L849.56,2581.72z
					 M677.68,2240.8l174.18,333.58l102.17-53.35l-174.18-333.58L677.68,2240.8z"/>
			</g>
			<g>
				<path class="st10" d="M1986.8,1980.19c-29.1-32.69-81.87,2.47-109.19-39.19c-27.01-43.6,31.36-77.37,8.85-119.13
					c-21.41-42.34-82.48-13.74-102.82-60.82c-18.57-46.23,40.44-69.44,30.25-112l377.29-58.94l109.21-17.06
					c28.87-4.5,47.01,30.24,26.82,51.36l-76.41,79.87L1986.8,1980.19z"/>
				<path class="st3" d="M1986.73,1984.2l-1.96-2.2c-12.86-14.45-30.67-14.83-49.53-15.23c-21.93-0.47-44.61-0.96-59.9-24.27
					c-14.71-23.75-5.56-44.51,3.29-64.59c8.08-18.34,15.72-35.67,5.44-54.75c-9.81-19.39-28.39-23.03-48.06-26.88
					c-21.54-4.21-43.81-8.57-54.86-34.15c-10.42-25.94,2.14-44.83,14.29-63.1c10.44-15.71,20.31-30.54,15.81-49.35l-0.69-2.87
					l489.41-76.46c14.35-2.23,27.93,4.64,34.64,17.5c6.72,12.87,4.58,27.94-5.44,38.42L1986.73,1984.2z M1817.13,1651.3
					c3.45,19.75-7.02,35.5-17.17,50.75c-11.89,17.89-23.12,34.78-13.8,57.99c9.88,22.88,29.8,26.77,50.88,30.9
					c20.09,3.93,40.86,7.99,51.84,29.7c11.51,21.36,2.97,40.73-5.28,59.46c-8.66,19.66-16.85,38.22-3.69,59.47
					c13.68,20.86,33.96,21.29,55.43,21.75c18.31,0.4,37.22,0.8,51.46,14.92l338.43-353.72c10.17-10.64,9.02-23.58,4.55-32.14
					c-4.47-8.57-14.45-16.9-28.98-14.64L1817.13,1651.3z"/>
			</g>
			<g class="st5">
				<path class="st3" d="M1977.9,1989.46L728.79,2641.72c-54.97,28.7-122.8,7.41-151.5-47.56l-46.78-89.58
					c28.71,54.99,96.51,76.27,151.5,47.56l1237.72-646.31c7.55-3.94,14.4-9.08,20.3-15.22l0,0l395.39-291.84
					c1.36,8.66-0.91,18.02-8.21,25.63l-76.41,79.87l-263.99,275.92L1977.9,1989.46z"/>
			</g>
			<g class="st11">
				<path class="st4" d="M2334.05,1613.48c-3.91-1.06-8.23-1.34-12.87-0.63l-109.21,17.06l-377.29,58.94l-12.7,2.01L572.87,2343.12
					c-54.99,28.72-76.27,96.51-47.56,151.5l-20.79-39.81c-28.71-54.99-7.43-122.79,47.56-151.5l1249.11-652.26l12.7-2.01
					l377.29-58.94l109.21-17.06C2324.63,1569.25,2341.32,1593.22,2334.05,1613.48z"/>
			</g>
			<g>
				<path class="st3" d="M677.03,2671.29c-46.59,0-91.66-25.25-114.67-69.34l-72.76-139.35c-32.95-63.12-8.42-141.27,54.69-174.23
					l1249.11-652.26c1.63-0.85,3.38-1.43,5.2-1.71l499.19-78.01c20.43-3.18,39.78,6.6,49.34,24.92c9.56,18.32,6.52,39.79-7.75,54.72
					l-349.31,365.06c-1.27,1.32-2.74,2.44-4.37,3.29L736.58,2656.65C717.55,2666.58,697.15,2671.29,677.03,2671.29z
					 M1806.53,1667.27L559.88,2318.24c-46.65,24.36-64.78,82.13-40.42,128.77l72.76,139.35c24.36,46.66,82.14,64.79,128.78,40.42
					l1246.65-650.98l347.39-363.06c6.3-6.59,3.3-13.79,2.23-15.84c-1.07-2.06-5.31-8.63-14.29-7.23L1806.53,1667.27z
					 M1977.9,1989.46h0.05H1977.9z"/>
			</g>
			<g>
				<path class="st3" d="M1986.81,1997.03c-4.64,0-9.26-1.9-12.58-5.64c-8.35-9.38-20.37-10.1-39.29-10.51
					c-23.18-0.49-52.04-1.11-71.41-30.64c-18.82-30.38-7.18-56.8,2.18-78.03c8.26-18.75,12.61-29.96,5.93-42.35
					c-6.56-12.95-18.24-15.79-38.34-19.72c-22.77-4.46-51.11-10-65.11-42.4c-13.33-33.17,2.65-57.21,15.5-76.51
					c10.48-15.76,16.76-26.04,13.83-38.25c-2.17-9.04,3.41-18.13,12.46-20.3c9.04-2.15,18.13,3.41,20.3,12.46
					c6.49,27.1-7.39,47.97-18.54,64.74c-12.14,18.26-18.7,29.34-12.45,44.9c6.47,14.96,18.97,18.09,40.49,22.3
					c21.22,4.15,47.64,9.32,61.73,37.19c14.61,27.11,3.76,51.74-4.96,71.53c-8.84,20.07-13.42,32.11-4.6,46.34
					c8.96,13.65,21.81,14.6,43.73,15.07c20.14,0.43,45.2,0.97,63.73,21.78c6.19,6.95,5.57,17.59-1.38,23.78
					C1994.79,1995.62,1990.79,1997.03,1986.81,1997.03z"/>
			</g>
			<g>
				<path class="st3" d="M2250.79,1704.27c-37.15-29.05-57-67.07-59.61-114.16l109.21-17.06c28.87-4.5,47.01,30.24,26.82,51.36
					L2250.79,1704.27z"/>
			</g>
			<g>
				<path class="st3" d="M850.72,2594.89c-1.7,0-3.4-0.25-5.04-0.77c-4.26-1.34-7.82-4.31-9.89-8.27l-176.71-338.41
					c-2.07-3.96-2.48-8.58-1.14-12.84c1.34-4.26,4.31-7.82,8.27-9.89l106.99-55.87c8.24-4.31,18.42-1.1,22.72,7.13l176.71,338.4
					c4.31,8.25,1.11,18.42-7.13,22.73l-106.99,55.87C856.08,2594.25,853.41,2594.89,850.72,2594.89z M696.73,2246.78l161.12,308.55
					l77.14-40.28L773.87,2206.5L696.73,2246.78z"/>
			</g>
			<g>
				<path class="st3" d="M2250.77,1721.1c-3.63,0-7.29-1.17-10.37-3.57c-40.94-32.03-63.16-74.58-66.04-126.48
					c-0.52-9.29,6.59-17.24,15.88-17.75c9.27-0.56,17.24,6.59,17.75,15.88c2.36,42.37,19.75,75.67,53.17,101.82
					c7.33,5.73,8.62,16.32,2.89,23.65C2260.73,1718.89,2255.78,1721.1,2250.77,1721.1z"/>
			</g>
		</g>
	</g>
</g>
</svg>
